<svg width="273" height="331" viewBox="0 0 273 331" fill="none" xmlns="http://www.w3.org/2000/svg">
<g style="mix-blend-mode:soft-light">
<path d="M34.6337 66V1.6H92.3177V66H74.4697V17.24H52.4817V66H34.6337ZM160.856 57.536C154.232 64.0373 145.982 67.288 136.108 67.288C126.233 67.288 117.984 64.068 111.36 57.628C104.797 51.1267 101.516 43.184 101.516 33.8C101.516 24.4773 104.828 16.5653 111.452 10.064C118.137 3.56266 126.417 0.311996 136.292 0.311996C146.166 0.311996 154.385 3.56266 160.948 10.064C167.572 16.504 170.884 24.416 170.884 33.8C170.884 43.1227 167.541 51.0347 160.856 57.536ZM136.292 51.188C141.137 51.188 145.062 49.5013 148.068 46.128C151.134 42.7547 152.668 38.6453 152.668 33.8C152.668 29.016 151.104 24.9373 147.976 21.564C144.848 18.1293 140.892 16.412 136.108 16.412C131.324 16.412 127.398 18.0987 124.332 21.472C121.326 24.8453 119.824 28.9547 119.824 33.8C119.824 38.584 121.357 42.6933 124.424 46.128C127.552 49.5013 131.508 51.188 136.292 51.188ZM180.181 66V1.6H198.029V50.36H216.337V1.6H234.185V50.36H252.493V1.6H270.341V66H180.181ZM35.5012 154L62.9172 89.14H80.1212L107.537 154H88.4012L83.7092 142.5H58.8692L54.2692 154H35.5012ZM64.1132 128.608H78.5572L71.3812 110.3L64.1132 128.608ZM113.786 154V89.6H160.154V105.24H131.634V154H113.786ZM224.824 145.536C218.2 152.037 209.951 155.288 200.076 155.288C190.202 155.288 181.952 152.068 175.328 145.628C168.766 139.127 165.484 131.184 165.484 121.8C165.484 112.477 168.796 104.565 175.42 98.064C182.106 91.5627 190.386 88.312 200.26 88.312C210.135 88.312 218.354 91.5627 224.916 98.064C231.54 104.504 234.852 112.416 234.852 121.8C234.852 131.123 231.51 139.035 224.824 145.536ZM200.26 139.188C205.106 139.188 209.031 137.501 212.036 134.128C215.103 130.755 216.636 126.645 216.636 121.8C216.636 117.016 215.072 112.937 211.944 109.564C208.816 106.129 204.86 104.412 200.076 104.412C195.292 104.412 191.367 106.099 188.3 109.472C185.295 112.845 183.792 116.955 183.792 121.8C183.792 126.584 185.326 130.693 188.392 134.128C191.52 137.501 195.476 139.188 200.26 139.188ZM242.125 132.932V117.568H272.301V132.932H242.125ZM54.1298 242V177.6H87.1578C95.0085 177.6 100.866 179.532 104.73 183.396C107.49 186.156 108.87 189.683 108.87 193.976C108.87 200.661 105.558 205.445 98.9338 208.328C103.104 209.677 106.263 211.609 108.41 214.124C110.618 216.639 111.722 220.012 111.722 224.244C111.722 229.764 109.575 234.119 105.282 237.308C100.988 240.436 95.0085 242 87.3418 242H54.1298ZM71.5178 227.648H85.3178C91.0218 227.648 93.8738 225.624 93.8738 221.576C93.8738 217.712 90.9604 215.78 85.1338 215.78H71.5178V227.648ZM71.5178 203.268H82.7418C88.3845 203.268 91.2058 201.336 91.2058 197.472C91.2058 193.792 88.5071 191.952 83.1098 191.952H71.5178V203.268ZM119.895 242V177.6H137.743V197.84H147.495C155.53 197.84 162.001 199.741 166.907 203.544C171.814 207.285 174.267 212.683 174.267 219.736C174.267 226.667 171.937 232.125 167.275 236.112C162.614 240.037 156.327 242 148.415 242H119.895ZM137.743 227.004H147.035C150.041 227.004 152.341 226.36 153.935 225.072C155.591 223.723 156.419 221.791 156.419 219.276C156.419 217.007 155.591 215.197 153.935 213.848C152.279 212.499 150.01 211.824 147.127 211.824H137.743V227.004ZM181.811 242V177.6H199.659V242H181.811ZM211.087 242V177.6H228.751V213.848L253.683 177.6H270.335V242H252.671V205.752L227.739 242H211.087ZM241.263 173.46C236.847 173.46 233.197 172.233 230.315 169.78C227.493 167.327 225.745 163.861 225.071 159.384L234.823 157.636C236.172 161.316 238.319 163.156 241.263 163.156C244.268 163.156 246.445 161.316 247.795 157.636L257.547 159.384C256.872 163.861 255.093 167.327 252.211 169.78C249.389 172.233 245.74 173.46 241.263 173.46ZM0.403219 330V265.6H58.0872V330H40.2392V281.24H18.2512V330H0.403219ZM73.1731 330.92C69.0024 330.92 65.4451 330.429 62.5011 329.448L63.6971 315.74C64.8011 315.985 66.1811 316.108 67.8371 316.108C69.0637 316.108 70.0757 315.924 70.8731 315.556C71.6704 315.188 72.5291 314.237 73.4491 312.704C74.4304 311.109 75.1971 308.901 75.7491 306.08C76.3011 303.197 76.7611 299.119 77.1291 293.844C77.4971 288.508 77.6811 282.068 77.6811 274.524V265.6H127.177V330H109.329V281.24H94.3331V283.724C94.3331 291.391 93.9957 298.045 93.3211 303.688C92.6464 309.331 91.6957 313.9 90.4691 317.396C89.3037 320.831 87.8011 323.591 85.9611 325.676C84.1211 327.7 82.1891 329.08 80.1651 329.816C78.2024 330.552 75.8717 330.92 73.1731 330.92ZM133.431 330L160.847 265.14H178.051L205.467 330H186.331L181.639 318.5H156.799L152.199 330H133.431ZM162.043 304.608H176.487L169.311 286.3L162.043 304.608ZM211.716 330V265.6H229.564V289.704H252.472V265.6H270.32V330H252.472V305.528H229.564V330H211.716Z" fill="black"/>
</g>
</svg>
